<?xml version="1.0" encoding="UTF-8"?>
<svg width="138px" height="41px" viewBox="0 0 138 41" version="1.1" xmlns="http://www.w3.org/2000/svg" xmlns:xlink="http://www.w3.org/1999/xlink">
    <!-- Generator: sketchtool 52.5 (67469) - http://www.bohemiancoding.com/sketch -->
    <title>0537F68C-2309-4C65-B267-6E864EC07F73</title>
    <desc>Created with sketchtool.</desc>
    <g id="Page-1" stroke="none" stroke-width="1" fill="none" fill-rule="evenodd">
        <g id="autocrypo" transform="translate(-192.000000, -3896.000000)" fill="#929DC5">
            <g id="Partner" transform="translate(192.000000, 3827.000000)">
                <g id="Group-16">
                    <g id="Group-12" transform="translate(0.000000, 65.000000)">
                        <g id="Group-20" transform="translate(0.000000, 4.000000)">
                            <path d="M85.4869731,32.0948258 C77.4502119,37.9075718 65.7968174,41 55.7631087,41 C41.6998346,41 29.0367816,35.9059963 19.4534894,27.4250755 C18.7013845,26.7596613 19.3724749,25.8489385 20.2769355,26.3650345 C30.6159601,32.2613275 43.4017441,35.8117836 56.6077153,35.8117836 C65.5156849,35.8117836 75.3087684,34.0010036 84.318913,30.2544192 C85.6780223,29.6897356 86.8170622,31.1331452 85.4869731,32.0948258" id="Fill-76"></path>
                            <path d="M89.2270391,28.2879258 C88.2060772,27.0479499 82.4800475,27.7006887 79.9081359,27.9923137 C79.1290597,28.0800291 79.008417,27.435834 79.7106659,26.9676391 C84.278285,23.9226638 91.7617376,24.8026651 92.632046,25.8205048 C93.5083567,26.849736 92.4027648,33.9694875 88.1220474,37.368172 C87.4630138,37.8910466 86.8369919,37.6119523 87.1292955,36.9221908 C88.0914366,34.6393137 90.2486012,29.5284713 89.2270391,28.2879258" id="Fill-77"></path>
                            <path d="M80.0579703,4.58588408 L80.0579703,1.46437909 C80.0604132,0.989511204 80.4244113,0.672732246 80.8616977,0.672732246 L95.0783901,0.672131148 C95.5333877,0.672732246 95.8979966,0.997926584 95.8992181,1.4607725 L95.8979966,4.13806562 C95.8943322,4.58708627 95.5101798,5.1731574 94.8279887,6.10365802 L87.4637445,16.4515703 C90.1973949,16.3878538 93.088615,16.7905899 95.5718641,18.1647013 C96.1325189,18.474267 96.2827597,18.9335063 96.3267327,19.3831281 L96.3267327,22.7144165 C96.3267327,23.1724536 95.8167688,23.7044259 95.2805434,23.4285216 C90.9046262,21.1719975 85.0977566,20.9255471 80.2595129,23.4555711 C79.7648174,23.7152456 79.2475248,23.1910877 79.2475248,22.7324494 L79.2475248,19.565261 C79.2475248,19.059136 79.2572965,18.1923518 79.7764214,17.4199401 L88.3077804,5.37332323 L80.8800198,5.37212103 C80.4256328,5.37212103 80.0616347,5.05353878 80.0579703,4.58588408" id="Fill-78"></path>
                            <path d="M28.2497855,23.5245902 L23.9898444,23.5245902 C23.5850237,23.4978698 23.2608062,23.1974144 23.2277228,22.8132352 L23.2307304,1.23210471 C23.2307304,0.79982894 23.5988586,0.45483962 24.0530037,0.45483962 L28.0200062,0.453652049 C28.4350527,0.474434538 28.7682929,0.784984305 28.7947597,1.17866403 L28.7947597,3.99617577 L28.8741599,3.99617577 C29.908167,1.27129455 31.8564796,7.99360578e-14 34.4808968,7.99360578e-14 C37.1450142,7.99360578e-14 38.8148245,1.27129455 40.0082336,3.99617577 C41.0416393,1.27129455 43.3875543,7.99360578e-14 45.8922698,7.99360578e-14 C47.6823834,7.99360578e-14 49.630696,0.72619955 50.822902,2.36148455 C52.1751115,4.17787411 51.8972108,6.81131238 51.8972108,9.12826303 L51.8942032,22.7473251 C51.8942032,23.1778195 51.5254735,23.5245902 51.0719299,23.5245902 L46.8174024,23.5245902 C46.3903256,23.4966822 46.0528747,23.1623811 46.0528747,22.7485126 L46.0516717,11.3080492 C46.0516717,10.3995576 46.1310719,8.12892219 45.9325714,7.266152 C45.6143691,5.81315911 44.6603636,5.40404097 43.4278559,5.40404097 C42.3938488,5.40404097 41.3201415,6.08570661 40.8822374,7.17530283 C40.4449347,8.26549283 40.4852363,10.0812886 40.4852363,11.3080492 L40.4852363,22.7473251 C40.4852363,23.1778195 40.1171081,23.5245902 39.6635646,23.5245902 L35.4084356,23.5245902 C34.9813587,23.4966822 34.6439079,23.1623811 34.6439079,22.7485126 L34.6396972,11.3080492 C34.6396972,8.901437 35.0372998,5.35891328 32.0158815,5.35891328 C28.9535601,5.35891328 29.0732619,8.80999405 29.0732619,11.3080492 L29.0714573,22.7473251 C29.0720588,23.1778195 28.7033291,23.5245902 28.2497855,23.5245902" id="Fill-79"></path>
                            <path d="M107.218424,4.32184173 C104.108408,4.32184173 103.911911,8.4648446 103.911911,11.0489786 C103.911911,13.6331125 103.873207,19.1578931 107.179125,19.1578931 C110.446338,19.1578931 110.603536,14.7026504 110.603536,11.9851155 C110.603536,10.2025524 110.524342,8.06347664 109.97415,6.37062422 C109.501365,4.90088347 108.556392,4.32184173 107.218424,4.32184173 Z M107.179125,7.99360578e-14 C113.437861,7.99360578e-14 116.821782,5.25739609 116.821782,11.9402601 C116.821782,18.400595 113.08357,23.5245902 107.179125,23.5245902 C101.038882,23.5245902 97.6930693,18.2671941 97.6930693,11.7171485 C97.6930693,5.12341259 101.078182,7.99360578e-14 107.179125,7.99360578e-14 Z" id="Fill-80"></path>
                            <path d="M125.328727,23.5245902 L121.021105,23.5245902 C120.587534,23.4966822 120.244341,23.1623811 120.244341,22.7485126 L120.237624,1.15906911 C120.274264,0.764795601 120.632723,0.45483962 121.068737,0.45483962 L125.080187,0.453652049 C125.457577,0.472059397 125.769016,0.723230623 125.848402,1.05871938 L125.848402,4.35897866 L125.930231,4.35897866 C127.141177,1.40786519 128.83638,7.99360578e-14 131.822526,7.99360578e-14 C133.760162,7.99360578e-14 135.658105,0.681071859 136.869051,2.54318289 C138,4.26872327 138,7.17530283 138,9.26423988 L138,22.8447059 C137.951147,23.2276975 137.598183,23.5245902 137.171329,23.5245902 L132.835617,23.5245902 C132.435021,23.4990574 132.112591,23.212259 132.06557,22.8447059 L132.06557,11.1263509 C132.06557,8.76427257 132.348307,5.3131918 129.36094,5.3131918 C128.310598,5.3131918 127.342086,5.99426366 126.85844,7.03873219 C126.252662,8.35574822 126.171443,9.67276424 126.171443,11.1263509 L126.171443,22.7473251 C126.164115,23.1778195 125.790389,23.5245902 125.328727,23.5245902" id="Fill-81"></path>
                            <path d="M72.9761856,23.1793241 C72.6916419,23.4234516 72.2835941,23.4403081 71.9627256,23.2758126 C70.5394017,22.138876 70.2839177,21.6140019 69.5059631,20.5317034 C67.1521207,22.8340581 65.485421,23.5245902 62.4371708,23.5245902 C58.8277036,23.5245902 56.019802,21.3855683 56.019802,17.1092684 C56.019802,13.7670468 57.9050554,11.4949174 60.5918746,10.3806497 C62.9184735,9.40065222 66.1671151,9.22278791 68.6535428,8.95541018 L68.6535428,8.42065472 C68.6535428,7.44065721 68.7334572,6.28221414 68.1322829,5.4359055 C67.6110231,4.67794776 66.6078551,4.36639458 65.7251642,4.36639458 C64.0905514,4.36639458 62.6369568,5.17085279 62.2797637,6.83847606 C62.205298,7.20873609 61.9237813,7.57550859 61.5351067,7.59469003 L57.3795577,7.16281688 C57.0284186,7.08667235 56.6385332,6.81696959 56.739637,6.30255809 C57.6949774,1.46243993 62.2470714,7.99360578e-14 66.3275493,7.99360578e-14 C68.4131942,7.99360578e-14 71.1405759,0.534755459 72.7848754,2.04950842 C74.8705202,3.92057128 74.6695234,6.415903 74.6695234,9.13385575 L74.6695234,15.5468525 C74.6695234,17.4754597 75.5043868,18.3217683 76.2883955,19.3616352 C76.5614364,19.735964 76.6231884,20.181206 76.2738656,20.4543963 C75.3978342,21.1594598 73.841925,22.4574043 72.9858722,23.1886242 L72.9761856,23.1793241 Z M68.6535428,13.1433592 C68.6535428,14.7476256 68.6935,16.083933 67.8513717,17.5097538 C67.1690722,18.6687781 66.0865953,19.3808166 64.8836413,19.3808166 C63.2387365,19.3808166 62.2761312,18.1770356 62.2761312,16.3960674 C62.2761312,12.8905129 65.5514109,12.2522938 68.6535428,12.2522938 L68.6535428,13.1433592 Z" id="Fill-86"></path>
                            <path d="M16.9564394,23.1793241 C16.6725001,23.4234516 16.2632402,23.4403081 15.9435815,23.2758126 C14.519042,22.138876 14.2641627,21.6140019 13.4856001,20.5317034 C11.1323553,22.8340581 9.46504474,23.5245902 6.41738993,23.5245902 C2.80730539,23.5245902 1.77635684e-15,21.3855683 1.77635684e-15,17.1092684 C1.77635684e-15,13.7670468 1.88525965,11.4949174 4.57208762,10.3806497 C6.89808877,9.40065222 10.1473465,9.22278791 12.6337824,8.95541018 L12.6337824,8.42065472 C12.6337824,7.44065721 12.713697,6.28221414 12.1125208,5.4359055 C11.5906538,4.67794776 10.588088,4.36639458 9.70599957,4.36639458 C8.07077596,4.36639458 6.61657119,5.17085279 6.25998226,6.83847606 C6.18551632,7.20873609 5.90399874,7.57550859 5.51532286,7.59469003 L1.35976017,7.16281688 C1.00861997,7.08667235 0.618127842,6.81696959 0.719837418,6.30255809 C1.67457552,1.46243993 6.22728989,7.99360578e-14 10.3077812,7.99360578e-14 C12.3928275,7.99360578e-14 15.1202183,0.534755459 16.7651285,2.04950842 C18.8501748,3.92057128 18.6497827,6.415903 18.6497827,9.13385575 L18.6497827,15.5468525 C18.6497827,17.4754597 19.4840434,18.3217683 20.2680547,19.3616352 C20.5417019,19.735964 20.6034542,20.181206 20.2541302,20.4543963 C19.3787014,21.1594598 17.8221816,22.4574043 16.966126,23.1886242 L16.9564394,23.1793241 Z M12.6337824,13.1433592 C12.6337824,14.7476256 12.6737397,16.083933 11.8316086,17.5097538 C11.1499123,18.6687781 10.0668264,19.3808166 8.86326308,19.3808166 C7.21956368,19.3808166 6.25695519,18.1770356 6.25695519,16.3960674 C6.25695519,12.8905129 9.53224571,12.2522938 12.6337824,12.2522938 L12.6337824,13.1433592 Z" id="Fill-87"></path>
                        </g>
                    </g>
                </g>
            </g>
        </g>
    </g>
</svg>