<?xml version="1.0" encoding="UTF-8"?>
<svg width="153px" height="29px" viewBox="0 0 153 29" version="1.1" xmlns="http://www.w3.org/2000/svg" xmlns:xlink="http://www.w3.org/1999/xlink">
    <!-- Generator: sketchtool 52.5 (67469) - http://www.bohemiancoding.com/sketch -->
    <title>98FD3A64-5510-4ADD-A725-D7C63F15E2D9</title>
    <desc>Created with sketchtool.</desc>
    <g id="Page-1" stroke="none" stroke-width="1" fill="none" fill-rule="evenodd">
        <g id="autocrypo" transform="translate(-514.000000, -3903.000000)">
            <g id="Partner" transform="translate(192.000000, 3827.000000)">
                <g id="Group-16">
                    <g id="Group-12" transform="translate(0.000000, 65.000000)">
                        <g id="Group-17" transform="translate(322.000000, 11.000000)">
                            <path d="M4.98983417,0 L24.2455743,0 C25.5137527,0.126795555 26.7343194,0.683821543 27.6324778,1.58450721 C28.4598063,2.40911554 29.0176285,3.50014027 29.177804,4.65500002 C29.2615655,5.24991893 29.2354084,5.85154197 29.2383474,6.45083315 C29.2374657,9.12024393 29.2412864,11.7890717 29.2368779,14.4578995 C29.2465766,15.3218582 28.801612,16.1764894 28.0706827,16.649568 C27.1681158,17.2593526 25.8796582,17.2147555 25.022352,16.5414274 C24.5488791,16.1852339 24.2079551,15.6570649 24.0795208,15.0816754 C23.9610791,14.5800314 24.0128055,14.0608983 23.9531438,13.5528416 C23.7271347,11.2244672 22.5632907,9.00598218 20.781375,7.47656546 C19.0879232,5.99466063 16.8369431,5.15810146 14.5792033,5.18025424 C12.6271195,5.17209269 10.6850283,5.81160866 9.10825485,6.94839639 C7.23405456,8.28659959 5.88740476,10.333109 5.42127937,12.5766616 C5.08476387,14.1597114 5.17087657,15.8293319 5.67844187,17.3660358 C6.38145066,19.5262239 7.91472695,21.4071704 9.89590684,22.5433752 C11.0662166,23.2257393 12.3902361,23.641104 13.7398249,23.7673166 C14.2268172,23.8162859 14.7235082,23.7702315 15.2043286,23.8815784 C15.8738328,24.0270289 16.47574,24.4572593 16.8345919,25.0355636 C17.2625103,25.7193852 17.3439206,26.6037477 17.0432609,27.3528617 C16.6708896,28.3439074 15.635186,29.0201504 14.5730314,28.9979976 C11.5770148,29.0023699 8.58246775,28.9979976 5.58674507,28.999455 C4.75794707,28.999455 3.92562228,28.8481748 3.17411998,28.4951876 C1.41424679,27.7073063 0.171049799,25.9464512 1.95399252e-14,24.0416031 L1.95399252e-14,4.95027334 C0.123437999,3.71234065 0.658042096,2.51084347 1.54885299,1.62881278 C2.44848089,0.694314968 3.69814368,0.125338134 4.98983417,0" id="Fill-9" fill="#929DC5"></path>
                            <path d="M13.3865628,8.15814572 C14.6135094,7.97922336 15.9004884,8.16892076 17.0090855,8.72808859 C18.3592413,9.38338111 19.4423962,10.5592782 19.982973,11.9512431 C20.5086848,13.274588 20.5358423,14.7819593 20.0730215,16.1268544 C19.6199203,17.4646605 18.6711236,18.6292154 17.452753,19.3551128 C16.2160869,20.1110669 14.6978406,20.3883824 13.2693568,20.1487795 C11.7736941,19.9091767 10.3815156,19.0880053 9.45530244,17.8990648 C8.72633837,16.9738292 8.27180783,15.8339434 8.18233106,14.6620161 C8.04997405,13.1597488 8.51022196,11.6155156 9.45015682,10.4302612 C10.4003829,9.20644362 11.8448753,8.37449717 13.3865628,8.15814572" id="Fill-10" fill="#929DC5"></path>
                            <path d="M21.4018545,19.5827852 C22.2432262,19.4658232 23.1292829,19.7710301 23.7201834,20.3735882 C24.6088859,21.2604049 24.7367673,22.7695642 24.0044624,23.7896361 C23.3341872,24.7875958 21.9486579,25.2170385 20.8183036,24.7875958 C19.9498857,24.4797703 19.2713791,23.7052605 19.0917571,22.8094244 C18.9676974,22.1550771 19.0632411,21.447195 19.4154295,20.8725681 C19.8314116,20.1737054 20.5854712,19.6790898 21.4018545,19.5827852" id="Fill-11" fill="#929DC5"></path>
                            <path d="M25.5077891,24.2831163 C26.0601191,24.1568073 26.6720573,24.2597043 27.1277809,24.5981661 C27.7285609,25.0201595 28.0401091,25.8043156 27.8868309,26.5147674 C27.78905,27.0428372 27.4504873,27.5194585 26.9836055,27.7931761 C26.3437718,28.1726811 25.4787191,28.1521595 24.8667809,27.7269867 C24.2369309,27.3107741 23.9124627,26.5075415 24.06486,25.7791694 C24.19406,25.0600465 24.7836818,24.4452658 25.5077891,24.2831163" id="Fill-12" fill="#929DC5"></path>
                            <path d="M150.976845,6.42383721 C150.304418,6.53713953 149.790555,7.18515947 149.819918,7.85283389 C149.816982,8.3551794 150.119427,8.83469103 150.562818,9.07834884 C150.894627,9.26506645 151.311591,9.29368106 151.672764,9.17893355 C152.265909,8.98556811 152.682873,8.37859136 152.6447,7.76467774 C152.635891,7.24903654 152.307018,6.76432226 151.840136,6.53627243 C151.575864,6.40707309 151.264609,6.37094352 150.976845,6.42383721 Z M150.929864,6.24954817 C151.358573,6.17295349 151.825455,6.25677409 152.177818,6.51575083 C152.433282,6.70853821 152.653509,6.96202326 152.762155,7.26522259 C152.932464,7.73866445 152.882545,8.30084053 152.585973,8.71763123 C152.403918,8.97660797 152.148455,9.19136213 151.848945,9.31304651 C151.552373,9.43328571 151.217627,9.44831561 150.903436,9.39513289 C150.163473,9.25899668 149.573264,8.5560598 149.605564,7.81034551 C149.590882,7.06607641 150.186964,6.37007641 150.929864,6.24954817 Z" id="Fill-14" fill="#9CB9E2"></path>
                            <path d="M37.3086201,8.08230467 C38.2726475,7.66034144 39.330656,7.54443359 40.367908,7.46784639 C41.6715359,7.39683449 42.9939024,7.36749074 44.2793684,7.62982393 C45.0188212,7.78651959 45.8124717,8.09726998 46.2028105,8.80122673 C46.7698685,9.82649761 46.7926431,11.0460242 46.7984088,12.1927782 C45.9246148,12.1957126 45.0511092,12.1942454 44.1781801,12.1927782 C44.1810629,11.566289 44.2104681,10.8919694 43.8956601,10.3297431 C43.6834818,9.95707733 43.2369273,9.8646445 42.8540839,9.79304573 C42.1137662,9.68594101 41.3601874,9.67420351 40.6135274,9.71675196 C39.9957311,9.75871353 39.3517009,9.79744729 38.7832015,10.0759196 C38.4678169,10.2223449 38.3254038,10.5694816 38.2521792,10.8934366 C38.0627755,11.6939343 38.0480729,12.5234824 38.0218389,13.3427601 C38.0186678,14.7465654 38.0160732,16.1547723 38.1876032,17.5497746 C38.2588098,17.94973 38.2896564,18.3948748 38.5586269,18.7158955 C38.937146,19.073009 39.4756637,19.1625075 39.9686323,19.2341063 C40.8980654,19.3403307 41.8430659,19.3359291 42.7733639,19.2162066 C43.224531,19.1372719 43.7584361,19.0416112 44.0144338,18.6040958 C44.3814215,17.9620544 44.3226112,17.1853251 44.3050258,16.4713915 C45.1736306,16.4787274 46.0419471,16.4787274 46.9114168,16.4713915 C46.9385157,17.4928477 46.9166059,18.5354314 46.6188068,19.519621 C46.4602497,20.0360712 46.1889728,20.5454788 45.7288689,20.8441982 C45.2359003,21.1575896 44.6578875,21.2875824 44.0931358,21.390579 C42.9434524,21.5833675 41.7733008,21.5939312 40.6129508,21.5745644 C39.6134643,21.53407 38.6004283,21.456309 37.6438964,21.1399833 C37.0540639,20.9351639 36.443763,20.607981 36.159225,20.0137699 C35.8562368,19.3893347 35.7299676,18.6965286 35.6273379,18.01546 C35.4278442,16.6028515 35.3880608,15.1752777 35.3609619,13.751812 C35.3557728,12.3512345 35.3528899,10.8981316 35.8824708,9.58177067 C36.1416396,8.91625426 36.6507522,8.35109349 37.3086201,8.08230467" id="Fill-16" fill="#929DC5"></path>
                            <path d="M68.8659493,7.96619337 C69.7136622,7.65866558 70.6161593,7.54422299 71.5102946,7.47643776 C72.6351001,7.40483778 73.7694208,7.38018861 74.8913429,7.51840005 C75.8099869,7.64751477 76.8745298,7.86466225 77.4206415,8.71153744 C78.0590212,9.74562897 78.0428743,11.0168221 78.0823766,12.1941136 C77.2078483,12.1941136 76.3333199,12.1926464 75.4608099,12.1941136 C75.4576382,11.5893285 75.4783985,10.9502106 75.2070727,10.3944304 C75.068959,10.0945322 74.7601492,9.93695351 74.457683,9.86300599 C73.8135365,9.70454702 73.1443046,9.69721095 72.4848762,9.6933962 C71.7115544,9.72274045 70.9131472,9.7306634 70.1807694,10.0153027 C69.8791681,10.1250502 69.6600314,10.3909091 69.5769901,10.7022517 C69.3592952,11.449063 69.3356515,12.2360759 69.3019159,13.0104707 C69.2967259,14.4060835 69.2776956,15.8022831 69.416386,17.1940811 C69.4691518,17.6286695 69.5118258,18.0752891 69.6796384,18.4831742 C69.849181,18.8637692 70.2690007,19.0160659 70.6357663,19.1208249 C71.4488787,19.3238871 72.2954383,19.3147904 73.127581,19.2968904 C73.71752,19.258156 74.332256,19.2370281 74.8789444,18.9832003 C75.3022242,18.7845397 75.4717668,18.2918497 75.5401028,17.8543269 C75.6237208,17.3971434 75.5729733,16.9329173 75.5871019,16.4713321 C76.4564401,16.4818961 77.3266434,16.4742666 78.1982884,16.4742666 C78.2069385,17.4256073 78.1910799,18.3919136 77.9517596,19.3180183 C77.799229,19.8749722 77.5555836,20.4530541 77.0743479,20.7963818 C76.5752353,21.1400031 75.9752044,21.2817358 75.3895905,21.3876686 C74.2172093,21.5833947 73.0255094,21.5939587 71.8413064,21.5745915 C70.8191491,21.5282275 69.7788266,21.4504653 68.8065517,21.0980408 C68.2607284,20.897913 67.7062549,20.5768868 67.4381008,20.0287361 C67.1140092,19.3746527 66.993484,18.6413398 66.8859341,17.9229924 C66.6731408,16.2967338 66.6310435,14.6522818 66.6420004,13.0139921 C66.6275835,12.1679972 66.6898644,11.3196548 66.8689221,10.4933206 C67.0081893,9.86594042 67.2400128,9.24237501 67.6540658,8.74675055 C67.970084,8.36938343 68.4147007,8.13580316 68.8659493,7.96619337" id="Fill-17" fill="#929DC5"></path>
                            <path d="M49.6419821,8.09444518 C50.4965343,8.09615149 51.3496707,8.10041726 52.2056387,8.09302326 C52.2172479,11.8184644 52.2093197,15.5458963 52.2079039,19.2716218 C54.298697,19.2861255 56.3897732,19.2716218 58.48,19.2787314 C58.4785842,20.0460017 58.4785842,20.8129876 58.48,21.5813953 C55.5332389,21.5813953 52.5876105,21.5813953 49.64,21.5813953 C49.6419821,17.0861245 49.6377348,12.5900004 49.6419821,8.09444518" id="Fill-18" fill="#929DC5"></path>
                            <path d="M61.2014968,8.09302326 C62.1061677,8.09444551 63.0129342,8.09131655 63.9194013,8.09558331 C63.92,12.5893369 63.9179045,17.0850817 63.92,21.5813953 C63.0129342,21.5813953 62.1061677,21.5813953 61.2,21.5813953 C61.2020955,17.0850817 61.2,12.5893369 61.2014968,8.09302326" id="Fill-19" fill="#929DC5"></path>
                            <path d="M80.930284,8.09302326 C81.8021815,8.1061022 82.6740791,8.09728813 83.5488704,8.09899408 C83.5503173,9.92635005 83.5474235,11.7534217 83.5503173,13.5793561 C83.9540004,13.5793561 84.3559472,13.5793561 84.7607878,13.5793561 C86.2794464,11.7534217 87.7963687,9.92635005 89.313291,8.101553 C90.4030906,8.09899408 91.4928902,8.09728813 92.579796,8.101553 C90.7419529,10.2888643 88.8829851,12.460822 87.0465889,14.6518295 C89.089312,16.9568512 91.1233538,19.2692655 93.16,21.5813953 C92.0363431,21.5813953 90.9141331,21.5813953 89.7904762,21.5785521 C88.1172895,19.63377 86.4472859,17.6875662 84.7729416,15.7442057 C84.3646285,15.7442057 83.9554473,15.742784 83.5488704,15.7442057 C83.5488704,17.6904094 83.5488704,19.63377 83.5488704,21.5813953 C82.6740791,21.5813953 81.7963939,21.5813953 80.9213132,21.5813953 C80.9273902,17.0842288 80.9097381,12.5890525 80.930284,8.09302326" id="Fill-20" fill="#929DC5"></path>
                            <path d="M122.410852,8.09381665 C123.232328,8.10263206 124.056656,8.0844325 124.880984,8.10121022 C125.140547,8.40008108 125.308836,8.78284054 125.537023,9.11270753 C127.359672,12.0832166 129.202287,15.0457634 131.013527,18.0242349 C131.498426,18.7897538 131.943392,19.5828564 132.442552,20.338138 C132.394062,18.3427271 132.431143,16.3481693 132.419733,14.352474 C132.414029,12.2728902 132.431143,10.1930219 132.411176,8.1120162 C132.924599,8.07561709 133.440873,8.1040539 133.957148,8.0969447 C133.96,12.5905293 133.954295,17.0835452 133.96,21.5785517 C133.118558,21.5845234 132.279968,21.5785517 131.438526,21.5813953 C129.658663,18.7132588 127.890208,15.8417097 126.113197,12.9741419 C125.371587,11.7979954 124.678467,10.5925591 123.925448,9.42608117 C123.948267,13.4783265 123.9283,17.52915 123.936857,21.5813953 C123.423435,21.5813953 122.912865,21.5813953 122.402295,21.5813953 C122.405148,17.0863889 122.390886,12.5891075 122.410852,8.09381665" id="Fill-21" fill="#929DC5"></path>
                            <path d="M137.36,8.10183438 C137.88653,8.09586556 138.41306,8.10751898 138.942549,8.09302326 C138.972129,10.0465357 138.954381,12.0014693 138.948465,13.9564028 C139.404002,13.9964793 139.865455,13.9637928 140.320993,13.9768674 C142.228925,12.0202284 144.151648,10.0746745 146.047748,8.10751898 C146.742886,8.09302326 147.440983,8.10183438 148.133163,8.10325553 C146.027042,10.2881311 143.867677,12.4261088 141.749724,14.6033102 C142.28217,15.1643801 142.858987,15.6865105 143.415097,16.2276844 C145.246121,18.0154907 147.091934,19.7862433 148.92,21.576892 C148.180491,21.5828608 147.440983,21.5828608 146.701474,21.576892 C144.583521,19.4721692 142.444862,17.3864899 140.318035,15.2931363 C139.865455,15.2874517 139.409918,15.290294 138.957339,15.290294 C138.957339,17.3833633 138.948465,19.4764327 138.963255,21.5683651 C138.427851,21.5913877 137.892446,21.576892 137.36,21.576892 C137.362958,17.0840692 137.36,12.593236 137.36,8.10183438" id="Fill-22" fill="#929DC5"></path>
                            <path d="M110.591949,17.5426056 C112.570458,17.5499979 114.548968,17.5397623 116.527477,17.5468704 C115.551286,14.8296079 114.537196,12.1222966 113.544926,9.40816162 C112.544044,12.1143356 111.567853,14.8279019 110.591949,17.5426056 Z M112.415416,8.10454661 C113.140094,8.0835068 113.866495,8.09857585 114.595767,8.09431103 C116.294914,12.5888685 117.986021,17.0839946 119.68,21.5782678 C119.137353,21.5782678 118.597576,21.5754246 118.052058,21.5813953 C117.696035,20.6320452 117.340013,19.6798518 116.998346,18.7248152 C114.712623,18.713158 112.425752,18.721972 110.140317,18.7191288 C109.786591,19.6727438 109.44636,20.6277804 109.089763,21.5782678 C108.540225,21.5754246 107.990974,21.5782678 107.44,21.5782678 C109.09407,17.0839946 110.768811,12.5982511 112.415416,8.10454661 Z" id="Fill-24" fill="#929DC5"></path>
                            <path d="M97.5046568,15.3206545 C97.4713061,16.9675117 97.4984035,18.6155063 97.4894703,20.2680503 C99.1111493,20.2652069 100.732531,20.2711779 102.35421,20.2652069 C103.080183,20.23194 103.854397,20.2407543 104.513669,19.9063786 C105.139591,19.5199699 105.17443,18.7255432 105.215523,18.0860781 C105.206292,17.40311 105.213737,16.680904 104.903158,16.0485472 C104.772733,15.7417518 104.439523,15.5984479 104.12418,15.527649 C103.408926,15.3627358 102.669553,15.3539215 101.935837,15.3280471 C100.459769,15.3192328 98.9807242,15.3337338 97.5046568,15.3206545 Z M97.492448,9.40936953 C97.4850037,10.9006966 97.492448,12.3908863 97.4894703,13.8816447 C97.4349776,14.0690202 97.6728993,14.0010646 97.778907,14.0169873 C98.6656789,14.0110163 99.5533442,14.0152813 100.440116,14.0138596 C101.544859,13.9973683 102.678486,14.0940415 103.751367,13.7903738 C104.130434,13.6905729 104.436248,13.4085145 104.560717,13.0530981 C104.813826,12.3490894 104.81055,11.582243 104.733427,10.8483793 C104.672978,10.3891814 104.51218,9.83984983 104.008942,9.65816099 C103.245448,9.38178922 102.408702,9.4150562 101.605605,9.40936953 C100.232567,9.40936953 98.8625078,9.40936953 97.492448,9.40936953 Z M95.8829777,8.09631932 C97.430511,8.09319166 98.9777464,8.09631932 100.523493,8.09461332 C101.647889,8.10484931 102.778538,8.0496887 103.89549,8.20379723 C104.430292,8.28852849 104.991299,8.40226173 105.43677,8.71417513 C105.942688,9.09603447 106.116886,9.7269696 106.221703,10.3081464 C106.329199,11.0829541 106.386968,11.8810771 106.220214,12.6536101 C106.0883,13.2043633 105.80333,13.7411842 105.33374,14.0948945 C105.094329,14.2851134 104.804595,14.3988466 104.530345,14.5304928 C105.178897,14.6709534 105.800352,15.0067508 106.176143,15.544709 C106.677893,16.235354 106.776159,17.1108156 106.757994,17.9296949 C106.721666,18.8008915 106.620423,19.7269644 106.091278,20.4650931 C105.645807,21.0843706 104.859385,21.3709783 104.111972,21.4867019 C103.228475,21.6356924 102.331579,21.5589225 101.441829,21.5791101 C99.5869927,21.5762668 97.7351341,21.5822378 95.88,21.5762668 C95.8862533,17.0818137 95.88,12.5907725 95.8829777,8.09631932 Z" id="Fill-25" fill="#929DC5"></path>
                        </g>
                    </g>
                </g>
            </g>
        </g>
    </g>
</svg>