<?xml version="1.0" encoding="UTF-8"?>
<svg width="89px" height="44px" viewBox="0 0 89 44" version="1.1" xmlns="http://www.w3.org/2000/svg" xmlns:xlink="http://www.w3.org/1999/xlink">
    <!-- Generator: sketchtool 52.5 (67469) - http://www.bohemiancoding.com/sketch -->
    <title>0F0F05A8-02E5-4776-9919-384F3BD482A2</title>
    <desc>Created with sketchtool.</desc>
    <g id="Page-1" stroke="none" stroke-width="1" fill="none" fill-rule="evenodd">
        <g id="autocrypo" transform="translate(-377.000000, -3895.000000)" fill="#929DC5">
            <g id="Partner" transform="translate(192.000000, 3827.000000)">
                <g id="Group-16">
                    <g id="Group-12" transform="translate(0.000000, 65.000000)">
                        <g id="Group-19" transform="translate(185.000000, 3.000000)">
                            <path d="M0.823013274,1.34268924 C0.802724915,0.880776672 0.97891329,0.506281524 1.6017125,0.506281524 C2.22451171,0.506281524 8.54273363,0.704357237 12.791543,0.704357237 C21.6009617,0.704357237 23.7141544,1.63424829e-13 25.2269719,1.63424829e-13 C26.0724091,0.021920379 26.2504662,0.660252378 26.2504662,1.03448343 C26.2504662,1.40871447 25.8500381,2.20101733 25.8500381,3.23523665 C25.8500381,4.26972008 26.0945662,5.37022874 26.0945662,6.27239759 C26.0945662,7.17483054 25.3161339,7.48277225 24.8935487,7.48277225 C24.4706966,7.48277225 24.2048124,7.3285373 24.1813206,6.55841892 C24.1370065,5.08394331 25.2269719,2.94921532 14.5267315,2.94921532 C9.07637084,2.94921532 8.9428948,3.56562694 8.9428948,5.28201902 C8.9428948,6.99867521 8.9874758,12.6768457 8.9874758,13.5570941 C8.9874758,14.4376067 9.25442788,14.7017077 9.96638909,14.7017077 C10.6780833,14.7017077 16.2619201,14.7017077 17.7747375,14.7017077 C19.287555,14.7017077 20.8222625,13.8874844 21.0003196,11.7746768 C21.0670576,10.6522478 21.3783237,10.6081429 21.9346518,10.6081429 C22.490713,10.6081429 23.0024602,11.0483992 22.9135651,12.1045389 C22.8244031,13.1612068 22.6020321,14.2836358 22.6020321,15.8019522 C22.6020321,17.3207968 22.9135651,18.8174569 22.9135651,19.9174373 C22.9135651,21.0182101 21.4450617,21.282047 21.1562196,20.0938568 C20.8668435,18.9054025 20.4439914,16.9024609 17.0181953,16.9024609 C13.5923992,16.9024609 10.8339834,16.9024609 10.0774412,16.9024609 C9.3211659,16.9024609 8.9428948,17.3207968 8.9428948,18.5530918 C8.9428948,19.785651 8.9428948,25.815868 8.9428948,27.3347126 C8.9428948,28.8530289 9.41006094,30.4817395 12.5245909,30.4817395 C15.6388539,30.4817395 21.2894287,30.8118657 23.8700545,28.8089241 C24.9821768,27.9064911 25.3161339,26.6522757 25.694138,24.6054933 C25.8721951,23.6592196 27.9410737,23.68114 27.8521787,25.8599728 C27.7851737,26.8725359 26.8046587,29.0463508 26.8046587,30.441332 C26.8046587,31.60813 27.0742803,33.1692308 25.9835141,33.1692308 C25.0617286,33.1692308 25.449343,32.7044131 21.4007477,32.7044131 C17.3518854,32.7044131 3.38148204,32.7926228 1.04565131,32.7926228 C0.17805704,32.7926228 7.10542736e-15,32.5504422 7.10542736e-15,32.0222403 C7.10542736e-15,31.4943025 0.311533081,31.097887 1.04565131,31.097887 C1.77976954,31.097887 4.89403255,31.1417278 4.89403255,27.2245825 C4.89403255,23.3069089 4.89403255,8.97943234 4.89403255,6.86662473 C4.89403255,4.75381712 4.4268664,2.64127361 1.80192656,2.37690856 C0.778699228,2.28896294 0.845437249,1.84870666 0.823013274,1.34268924" id="Fill-3"></path>
                            <path d="M29.2137405,13.5513826 C29.2137405,12.8965022 29.5638199,12.61977 30.3511051,12.357713 C31.8382869,11.7900976 33.5440714,10.1302286 34.9871652,6.19937381 C35.4464149,4.95460312 37.0209853,5.28217435 36.824164,6.54869577 C36.6276051,7.81547925 36.3431327,10.1519794 36.3431327,11.4842771 C37.0209853,11.4842771 42.0509504,11.4842771 42.6852398,11.4842771 C43.3195292,11.4842771 43.4286994,12.2486973 43.4286994,12.8600763 C43.4286994,13.4714552 43.2536597,13.9738185 42.7072838,13.9738185 C42.1165575,13.9738185 36.3431327,13.9738185 36.3431327,13.9738185 C36.3431327,13.9738185 36.3431327,20.9835808 36.3431327,24.9361864 C36.3431327,28.889054 37.6991002,29.8062534 39.5143175,29.8062534 C40.5640311,29.8062534 41.4166609,29.3911552 42.2042085,28.8455525 C42.7290653,28.452205 43.9099931,29.3911552 43.3195292,30.1555754 C42.7290653,30.9199956 40.6514197,33.1692308 37.6773187,33.1692308 C34.7029552,33.1692308 32.5599649,30.9637592 32.6037905,27.2732106 C32.6473536,23.5824 32.8003494,17.4240608 32.8003494,16.5723756 C32.8003494,15.7206903 31.6852911,14.5196832 30.4384938,14.5196832 C29.4108242,14.4979324 29.2137405,13.9591433 29.2137405,13.5513826" id="Fill-4"></path>
                            <path d="M55.2209598,10.96484 C57.3173724,10.96484 58.9456852,11.7022289 59.6369956,11.7022289 C60.3283059,11.7022289 60.5959444,10.8307692 61.3541644,10.8307692 C62.112652,10.8307692 62.2908992,11.7022289 62.090438,12.4396179 C61.8894414,13.1770069 61.7558898,14.9199263 61.8447458,16.8639517 C61.8672274,17.5343053 61.3319504,17.9365175 60.7966733,17.9365175 C60.2613963,17.9365175 60.0606674,17.7131557 59.8374568,16.6851014 C59.6147816,15.6573152 58.7002607,13.1770069 55.0871405,13.1770069 C52.4773972,13.1770069 51.4740203,14.9199263 51.4740203,16.0595274 C51.4740203,17.1991285 52.0845038,18.2885872 54.86393,19.5005866 C57.7857398,20.7742584 63.1832061,22.1374895 63.1832061,27.3214681 C63.0046912,32.1927937 58.1871976,33.734607 55.3547791,33.734607 C52.9682463,33.734607 50.7380144,33.0194738 49.7565839,33.0194738 C48.7751534,33.0194738 48.3961772,33.8461538 47.7715089,33.8461538 C47.1471082,33.8461538 46.7009548,33.1312888 46.9463793,32.3936316 C47.1915362,31.6562427 47.5038704,31.097704 47.5038704,30.3603151 C47.5038704,29.6229261 47.0801986,27.9022624 47.3253555,26.4722641 C47.5710476,25.0422658 49.4889454,24.8411597 49.4667314,26.2266466 C49.4445174,27.6121334 50.0689181,31.5669516 55.0649265,31.5669516 C59.1017185,31.5669516 59.5700859,28.7514664 59.5700859,27.9470421 C59.5700859,26.9637674 59.3690894,25.5560248 54.5293818,23.6345232 C49.6896743,21.7127535 47.8162045,19.9250545 47.8162045,16.8639517 C47.8162045,13.802849 50.5372855,10.96484 55.2209598,10.96484" id="Fill-5"></path>
                            <path d="M64.5419847,12.2376003 C64.5419847,11.7731134 64.5637943,11.5520176 65.0893263,11.5520176 C65.6148583,11.5520176 68.3959735,11.6404029 69.8627332,11.6404029 C71.3300185,11.6404029 74.0236326,11.5520176 74.5707114,11.5520176 C74.9651232,11.5520176 74.8555497,12.0385345 74.8555497,12.3705763 C74.8555497,12.7020872 74.8991689,13.2552248 74.1986348,13.2552248 C73.4978379,13.2552248 72.1842707,13.4983505 72.1842707,14.6707154 C72.1842707,15.842815 72.4932835,16.1695483 72.9504963,17.4356069 C73.4542187,18.8290676 77.0890606,27.2559218 77.0890606,27.2559218 C77.0890606,27.2559218 79.9356046,21.3503026 80.789594,19.6916862 C81.6435835,18.0328044 82.1691155,15.9534956 82.1691155,15.0245217 C82.1691155,14.0955479 81.2276249,13.4763205 80.4390642,13.32158 C79.6507662,13.1665741 79.25688,13.2108994 79.25688,12.2598957 C79.25688,11.7731134 79.3443811,11.5076923 79.7385301,11.5076923 C80.1326791,11.5076923 82.4975729,11.6624328 84.249171,11.6624328 C86.0012946,11.6624328 88.0374683,11.5520176 88.6068822,11.5520176 C89.1324141,11.5520176 88.9792216,11.9944746 88.9792216,12.3705763 C88.9792216,12.7464125 88.9353396,13.1222488 88.4754992,13.1888695 C88.0156587,13.2552248 85.979485,13.1665741 83.8552848,17.723058 C81.7313473,22.2792764 77.5268288,31.4585993 74.4834731,37.4305739 C72.9066144,40.5713016 69.9286875,43.9997458 66.8193775,43.9997458 C65.1988997,44.0217758 64.5637943,42.6062851 64.5637943,41.8984071 C64.5637943,41.190529 64.9579433,40.0404594 66.7973052,40.0404594 C68.0233713,40.0404594 68.3520915,40.6376569 68.9430523,40.6376569 C70.1693811,40.6376569 73.2789538,37.6293743 74.1547528,32.2328327 C74.2861358,30.9941124 73.0253846,27.9603494 72.5345378,26.5923691 C71.8045739,24.557651 69.5857779,18.6594636 67.9797521,15.1574977 C67.4316223,13.960714 65.9871977,13.34361 65.0675167,13.2329294 C64.6294858,13.1445442 64.5419847,12.9898037 64.5419847,12.2376003" id="Fill-6"></path>
                        </g>
                    </g>
                </g>
            </g>
        </g>
    </g>
</svg>