<?xml version="1.0" encoding="UTF-8"?>
<svg width="39px" height="26px" viewBox="0 0 39 26" version="1.1" xmlns="http://www.w3.org/2000/svg" xmlns:xlink="http://www.w3.org/1999/xlink">
    <!-- Generator: sketchtool 52.5 (67469) - http://www.bohemiancoding.com/sketch -->
    <title>B792D3A6-147F-4315-B9B1-68BDF5EA3809</title>
    <desc>Created with sketchtool.</desc>
    <g id="Page-1" stroke="none" stroke-width="1" fill="none" fill-rule="evenodd">
        <g id="autocrypo" transform="translate(-988.000000, -900.000000)" fill="#1FDB84" fill-rule="nonzero">
            <g id="Benefit" transform="translate(92.000000, 810.000000)">
                <path d="M935,102 C934.990279,102.828409 934.808288,103.645732 934.4656,104.4 L897.1344,104.4 C896.421897,102.879322 896.421897,101.120678 897.1344,99.6 L934.4656,99.6 C934.808288,100.354268 934.990279,101.171591 935,102 Z M898.07616,106 L933.52384,106 C930.62976,109.75776 923.7864,112.4 915.8,112.4 C913.823575,112.402435 911.850636,112.234076 909.9032,111.8968 L907.8,114 L897.4,114 C896.958172,114 896.6,113.641828 896.6,113.2 C896.6,112.758172 896.958172,112.4 897.4,112.4 L899.8,112.4 L901.93904,109.19136 C900.453059,108.393462 899.140098,107.308746 898.07616,106 Z M903.37696,109.9192 L901.72304,112.4 L907.13728,112.4 L908.03184,111.50544 C906.432232,111.129637 904.873192,110.598364 903.37696,109.9192 Z M923,114 L916.6,114 C916.158172,114 915.8,114.358172 915.8,114.8 C915.8,115.241828 916.158172,115.6 916.6,115.6 L923,115.6 C923.441828,115.6 923.8,115.241828 923.8,114.8 C923.8,114.358172 923.441828,114 923,114 Z M896.6,90.8 C896.6,90.3581722 896.958172,90 897.4,90 L907.8,90 L909.9032,92.1032 C911.850636,91.7659242 913.823575,91.5975646 915.8,91.6 C923.7864,91.6 930.62976,94.24224 933.52384,98 L898.07616,98 C899.140098,96.6912542 900.453059,95.6065376 901.93904,94.80864 L899.8,91.6 L897.4,91.6 C896.958172,91.6 896.6,91.2418278 896.6,90.8 Z M901.72304,91.6 L903.37696,94.0808 C904.873186,93.4015816 906.432227,92.8702549 908.03184,92.4944 L907.13728,91.6 L901.72304,91.6 Z" id="Shape"></path>
            </g>
        </g>
    </g>
</svg>