<?xml version="1.0" encoding="UTF-8"?>
<svg width="227px" height="27px" viewBox="0 0 227 27" version="1.1" xmlns="http://www.w3.org/2000/svg" xmlns:xlink="http://www.w3.org/1999/xlink">
    <!-- Generator: sketchtool 52.5 (67469) - http://www.bohemiancoding.com/sketch -->
    <title>BD1F4524-87CD-41E5-ABB4-522B9AC9421D</title>
    <desc>Created with sketchtool.</desc>
    <g id="Page-1" stroke="none" stroke-width="1" fill="none" fill-rule="evenodd">
        <g id="autocrypo" transform="translate(-1022.000000, -3904.000000)" fill="#929DC5">
            <g id="Partner" transform="translate(192.000000, 3827.000000)">
                <g id="Group-16">
                    <g id="Group-12" transform="translate(0.000000, 65.000000)">
                        <g id="Group-8" transform="translate(830.000000, 12.000000)">
                            <path d="M68.311644,9.36267501 L73.0311671,2.45756585 C73.9233616,1.15763517 75.0750859,0.506433685 76.4873192,0.506433685 C77.6395331,0.506433685 78.6365189,0.919800763 79.4792559,1.74455709 C80.3215032,2.57079679 80.7426268,3.55872433 80.7426268,4.70932862 C80.7426268,5.56029123 80.519823,6.31087882 80.0737258,6.96158585 L75.8184181,13.2090656 L81.021254,19.8699124 C81.5412927,20.5329808 81.8018018,21.3087858 81.8018018,22.1963383 C81.8018018,23.3726544 81.3929201,24.3823381 80.5756464,25.2268728 C79.7573933,26.0714074 78.7662837,26.4931803 77.6023175,26.4931803 C76.3262149,26.4931803 75.3542027,26.0743742 74.684812,25.235773 L68.311644,17.2057714 L68.311644,21.6336449 C68.311644,22.8974801 68.0947164,23.8789797 67.6613507,24.579627 C66.8680713,25.8553292 65.716347,26.4931803 64.2051987,26.4931803 C62.8301809,26.4931803 61.7646402,26.0244339 61.009066,25.0859522 C60.3029493,24.2226281 59.949891,23.0784518 59.949891,21.6524343 L59.949891,5.23444326 C59.949891,3.88407784 60.3088255,2.77105237 61.0276737,1.89536685 C61.7832479,0.969741044 62.8238151,0.506433685 64.1493753,0.506433685 C65.4132359,0.506433685 66.4655554,0.969741044 67.3082924,1.89536685 C67.7788736,2.40861449 68.0761086,2.92730117 68.1999973,3.45291027 C68.2744284,3.77776932 68.311644,4.38397511 68.311644,5.27251654 L68.311644,9.36267501 Z M46.8495174,0.000108459094 C49.9340034,-0.0122529966 52.7702223,1.03204278 55.3596431,3.13349025 C57.3913199,4.78448627 58.4069135,6.49234499 58.4069135,8.25558303 C58.4069135,9.75626376 57.78747,10.9202184 56.5490726,11.7454692 C55.842956,12.2216325 55.0741604,12.458478 54.2451344,12.458478 C53.5635017,12.458478 52.9132084,12.2958012 52.2937649,11.9709422 C52.0337455,11.8334828 51.3893284,11.2015652 50.3610032,10.0756838 C49.4071091,9.02496004 48.2118035,8.49885648 46.7750863,8.49885648 C45.3878266,8.49885648 44.2263088,8.98441446 43.2910225,9.95355259 C42.3557362,10.9231852 41.8880931,12.1079071 41.8880931,13.5092017 C41.8880931,14.8981349 42.3557362,16.0769233 43.2910225,17.0465559 C44.2263088,18.0161885 45.3814608,18.5002631 46.7564785,18.5002631 C47.8959608,18.5002631 48.9551357,18.1126078 49.9340034,17.3372973 C50.5407153,16.7493865 51.1420407,16.1619701 51.7365106,15.5730704 C52.380438,15.0098824 53.1977118,14.7285357 54.1888214,14.7285357 C55.3287933,14.7285357 56.3169649,15.1325081 57.1528464,15.9394639 C57.9887279,16.7454308 58.4069135,17.7249526 58.4069135,18.8755569 C58.4069135,20.4390338 57.4966008,22.0213001 55.6754858,23.6218614 C53.1237703,25.8736242 50.175415,27 46.83042,27 C44.7620172,27 42.8106477,26.5554821 40.9777805,25.6674351 C38.6611106,24.5415537 36.8184498,22.8875909 35.4497979,20.7045578 C34.0806563,18.5225137 33.3965752,16.1362583 33.3965752,13.5467805 C33.3965752,9.66973357 34.8210505,6.36724706 37.6704907,3.64030993 C40.184501,1.23823186 43.244503,0.0253258287 46.8495174,0.000108459094 Z M31.8021815,5.7417574 L31.8021815,21.6336449 C31.8021815,23.0097221 31.4491231,24.141537 30.7430065,25.029584 C29.9874323,26.0056445 28.9404993,26.4931803 27.6026972,26.4931803 C26.3760521,26.4931803 25.3418507,26.0367954 24.4996034,25.1240255 C23.7934868,24.360582 23.4404284,23.1971218 23.4404284,21.6336449 L23.4404284,5.7417574 C23.4404284,3.96566345 23.7934868,2.67710531 24.4996034,1.87608298 C25.3046351,0.962818629 26.3393262,0.506433685 27.6026972,0.506433685 C28.8660681,0.506433685 29.9002695,0.957379589 30.7057909,1.85828248 C31.4363915,2.6830388 31.8021815,3.9780249 31.8021815,5.7417574 Z M8.36126335,9.36267501 L13.0812761,2.45756585 C13.972981,1.15763517 15.1247052,0.506433685 16.5374282,0.506433685 C17.6896421,0.506433685 18.6861382,0.919800763 19.5288752,1.74455709 C20.3711225,2.57079679 20.7927358,3.55872433 20.7927358,4.70932862 C20.7927358,5.56029123 20.5694424,6.31087882 20.1233451,6.96158585 L15.8685271,13.2090656 L21.071363,19.8699124 C21.5914018,20.5329808 21.8514211,21.3087858 21.8514211,22.1963383 C21.8514211,23.3726544 21.4425394,24.3823381 20.6252657,25.2268728 C19.8075024,26.0714074 18.8163927,26.4931803 17.6519368,26.4931803 C16.3763239,26.4931803 15.403822,26.0743742 14.734921,25.235773 L8.36126335,17.2057714 L8.36126335,21.6336449 C8.36126335,22.8974801 8.14482538,23.8789797 7.71097008,24.579627 C6.9181803,25.8553292 5.76645606,26.4931803 4.254818,26.4931803 C2.88028996,26.4931803 1.81425949,26.0244339 1.05868529,25.0859522 C0.352568645,24.2226281 -4.97379915e-14,23.0784518 -4.97379915e-14,21.6524343 L-4.97379915e-14,5.23444326 C-4.97379915e-14,3.88407784 0.358934468,2.77105237 1.07729308,1.89536685 C1.83286728,0.969741044 2.87343446,0.506433685 4.19899463,0.506433685 C5.46285528,0.506433685 6.51566443,0.969741044 7.35840143,1.89536685 C7.82898264,2.40861449 8.12572791,2.92730117 8.25010629,3.45291027 C8.32404777,3.77776932 8.36126335,4.38397511 8.36126335,5.27251654 L8.36126335,9.36267501 Z" id="Fill-27"></path>
                            <path d="M224.234636,16.436352 L226.188658,19.6256204 C226.729877,20.5136709 227,21.4274334 227,22.36493 C227,23.5541068 226.596758,24.5385771 225.792218,25.3203187 C224.987678,26.1020603 224.00095,26.4931783 222.833492,26.4931783 C221.333724,26.4931783 220.196874,25.8429631 219.422941,24.5415438 L215.957491,18.7627873 L215.957491,22.2343925 C215.957491,23.4225803 215.57271,24.4293013 214.805094,25.2545554 C214.036991,26.080304 213.068239,26.4931783 211.901267,26.4931783 C210.475345,26.4931783 209.394366,25.9739951 208.656385,24.9356286 C207.992736,24.022855 207.661398,22.8218112 207.661398,21.3334859 L207.661398,5.55427159 C207.661398,2.31456826 209.375904,0.694222141 212.804431,0.694222141 L218.077182,0.694222141 C219.81015,0.694222141 221.420202,1.20450508 222.906853,2.22358758 C224.393989,3.24365901 225.48177,4.56584562 226.170196,6.19212526 C226.686637,7.41789213 226.944615,8.64959253 226.944615,9.8877209 C226.944615,12.2022892 226.041936,14.385331 224.234636,16.436352 Z M197.54343,18.3879864 L201.314469,18.3879864 C202.872537,18.3879864 204.031736,18.7133413 204.791579,19.363062 C205.687456,20.1393645 206.135395,21.1396575 206.135395,22.36493 C206.135395,23.6164088 205.685999,24.6295577 204.78915,25.4048713 C204.088578,26.0056405 202.939582,26.3052834 201.342162,26.3052834 L194.870859,26.3052834 C193.3468,26.3052834 192.302258,26.1866129 191.736748,25.949272 C190.630505,25.4864573 189.899325,24.7299332 189.543209,23.6787107 C189.321183,23.0032781 189.211385,21.8961817 189.211385,20.3574215 L189.211385,6.43638861 C189.211385,5.27242926 189.248308,4.49118213 189.321183,4.09017489 C189.456731,3.27777676 189.782725,2.58948814 190.299166,2.02679242 C190.888482,1.38844428 191.638609,0.981997986 192.54809,0.806464609 C192.978052,0.731801117 193.850609,0.694222141 195.16576,0.694222141 L200.125149,0.694222141 C201.476737,0.694222141 202.263788,0.707078106 202.484842,0.731801117 C203.370031,0.819320575 204.094408,1.08187895 204.659919,1.51947624 C205.667537,2.29577877 206.171832,3.30843329 206.171832,4.55941764 C206.171832,5.90978848 205.73021,6.94222141 204.84745,7.6557275 C204.061857,8.29308671 202.989623,8.61250801 201.627832,8.61250801 L197.54343,8.61250801 L197.54343,10.3569636 L200.798514,10.3569636 C201.753177,10.3569636 202.544599,10.6135885 203.169381,11.1268382 C203.831087,11.676678 204.162425,12.4336965 204.162425,13.3964106 C204.162425,15.4355645 202.942497,16.4551415 200.503613,16.4551415 L197.54343,16.4551415 L197.54343,18.3879864 Z M172.95151,8.55613955 L170.757486,8.55613955 C169.540473,8.55613955 168.532854,8.21842322 167.734144,7.54299057 C166.885879,6.81761743 166.461746,5.84798095 166.461746,4.63457559 C166.461746,3.90920245 166.661909,3.21201355 167.060779,2.54251442 C167.460134,1.87350975 167.976575,1.39783903 168.609616,1.11649116 C169.242171,0.834648842 170.744368,0.694222141 173.116693,0.694222141 L181.487118,0.694222141 C183.538793,0.694222141 184.866576,0.819320575 185.468524,1.06951744 C186.132172,1.34493178 186.66999,1.81763575 187.081977,2.4856515 C187.493478,3.15564509 187.699471,3.85926197 187.699471,4.59699661 C187.699471,5.75996704 187.244731,6.77361048 186.335251,7.63693801 C185.683748,8.25006868 184.62123,8.55613955 183.14624,8.55613955 L181.246631,8.55613955 L181.246631,21.3151909 C181.246631,22.7031407 181.013431,23.7785917 180.546545,24.5415438 C179.75998,25.8177456 178.622644,26.4555993 177.135994,26.4555993 C175.649343,26.4555993 174.505691,25.8736196 173.706981,24.7106492 C173.202686,23.9852761 172.95151,22.8846076 172.95151,21.4086439 L172.95151,8.55613955 Z M163.092491,16.436352 L165.046513,19.6256204 C165.587246,20.5136709 165.857855,21.4274334 165.857855,22.36493 C165.857855,23.5541068 165.454613,24.5385771 164.650073,25.3203187 C163.845047,26.1020603 162.859291,26.4931783 161.691833,26.4931783 C160.191579,26.4931783 159.0557,25.8429631 158.280796,24.5415438 L154.814374,18.7627873 L154.814374,22.2343925 C154.814374,23.4225803 154.431051,24.4293013 153.662948,25.2545554 C152.89436,26.080304 151.92658,26.4931783 150.759122,26.4931783 C149.3332,26.4931783 148.251735,25.9739951 147.514726,24.9356286 C146.851077,24.022855 146.519253,22.8218112 146.519253,21.3334859 L146.519253,5.55427159 C146.519253,2.31456826 148.233759,0.694222141 151.662772,0.694222141 L156.935037,0.694222141 C158.668005,0.694222141 160.278057,1.20450508 161.765194,2.22358758 C163.25233,3.24365901 164.340111,4.56584562 165.028537,6.19212526 C165.544007,7.41789213 165.80247,8.64959253 165.80247,9.8877209 C165.80247,12.2022892 164.899305,14.385331 163.092491,16.436352 Z M128.627949,22.9844886 C128.233938,23.9348411 127.828753,24.6419192 127.410936,25.104734 C126.575302,26.0303635 125.561368,26.4931783 124.369132,26.4931783 C122.906288,26.4931783 121.769923,25.8929036 120.959067,24.6918597 C120.479549,23.9788481 120.240033,23.1788115 120.240033,22.2902665 C120.240033,21.5525318 120.412018,20.8073803 120.756474,20.0577786 L128.627949,3.00186796 C129.389736,1.33899826 130.661648,0.506327259 132.443685,0.506327259 C134.250985,0.506327259 135.547189,1.36322681 136.333754,3.07752037 L144.280046,20.263474 C144.599725,20.9522571 144.759078,21.6336233 144.759078,22.3090559 C144.759078,23.3098434 144.438914,24.197894 143.800043,24.9732076 C142.964409,25.9873455 141.894604,26.4931783 140.59257,26.4931783 C139.523251,26.4931783 138.632232,26.155462 137.919028,25.4795348 C137.390441,24.9806245 136.86234,24.1479535 136.333754,22.9844886 L128.627949,22.9844886 Z M108.459057,8.55613955 L106.265033,8.55613955 C105.048506,8.55613955 104.040401,8.21842322 103.242177,7.54299057 C102.393912,6.81761743 101.969293,5.84798095 101.969293,4.63457559 C101.969293,3.90920245 102.169942,3.21201355 102.568812,2.54251442 C102.968167,1.87350975 103.484608,1.39783903 104.117649,1.11649116 C104.75069,0.834648842 106.252887,0.694222141 108.625212,0.694222141 L116.994666,0.694222141 C119.046826,0.694222141 120.374609,0.819320575 120.977043,1.06951744 C121.640691,1.34493178 122.178023,1.81763575 122.589524,2.4856515 C123.001997,3.15564509 123.207504,3.85926197 123.207504,4.59699661 C123.207504,5.75996704 122.752764,6.77361048 121.843284,7.63693801 C121.192267,8.25006868 120.128777,8.55613955 118.653787,8.55613955 L116.754664,8.55613955 L116.754664,21.3151909 C116.754664,22.7031407 116.52195,23.7785917 116.054578,24.5415438 C115.267528,25.8177456 114.131163,26.4555993 112.644027,26.4555993 C111.15689,26.4555993 110.013724,25.8736196 109.215014,24.7106492 C108.711205,23.9852761 108.459057,22.8846076 108.459057,21.4086439 L108.459057,8.55613955 Z M86.2627822,16.6237524 C87.1848942,16.6237524 88.1677353,17.0366267 89.2127632,17.8623752 C90.5147969,18.9012362 91.4063014,19.418936 91.8858191,19.418936 C92.5985368,19.418936 92.9546527,19.0446296 92.9546527,18.294039 C92.9546527,17.8811647 92.7457443,17.5310869 92.3279275,17.2428166 C92.1068733,17.0925007 90.8650829,16.6123798 88.6040138,15.7980038 C84.9048776,14.4728505 83.0553095,12.0208223 83.0553095,8.44290816 C83.0553095,5.74167201 84.0318348,3.6090651 85.986343,2.04558191 C87.6940477,0.682355096 89.8083951,5.32907052e-15 92.3279275,5.32907052e-15 C94.5034899,5.32907052e-15 96.3962972,0.528577969 98.0063494,1.58523945 C99.6159158,2.64239539 100.421428,4.00314989 100.421428,5.66651406 C100.421428,6.66730153 100.117296,7.50244483 99.5090324,8.1714495 C98.900283,8.84045417 98.1103178,9.17470928 97.1396225,9.17470928 C96.1193721,9.17470928 94.9883517,8.68123798 93.7470472,7.69330647 C92.9736003,7.08017581 92.3896284,6.77361048 91.9961033,6.77361048 C91.3203089,6.77361048 90.9821688,7.1113268 90.9821688,7.78626499 C90.9821688,8.42461313 91.8178024,9.0065928 93.4895554,9.53121509 C95.8001795,10.2699387 97.5880468,11.1703507 98.8541288,12.2329457 C100.537542,13.6594634 101.379977,15.6610384 101.379977,18.2376705 C101.379977,21.040271 100.433574,23.2287519 98.5407662,24.8045966 C96.7830207,26.2677044 94.4971741,27 91.6827407,27 C88.8683072,27 86.5392215,26.2375423 84.6954834,24.7106492 C83.2209787,23.4977383 82.4834835,22.078143 82.4834835,20.4513689 C82.4834835,19.363062 82.8459153,18.4567164 83.5712647,17.7308488 C84.2961282,17.0059701 85.1934627,16.6366084 86.2627822,16.6237524 Z" id="Fill-28"></path>
                        </g>
                    </g>
                </g>
            </g>
        </g>
    </g>
</svg>