<?xml version="1.0" encoding="UTF-8"?>
<svg width="59px" height="50px" viewBox="0 0 59 50" version="1.1" xmlns="http://www.w3.org/2000/svg" xmlns:xlink="http://www.w3.org/1999/xlink">
    <!-- Generator: sketchtool 52.5 (67469) - http://www.bohemiancoding.com/sketch -->
    <title>A6C33AC4-576A-4481-AD7D-66F5DCA00D40</title>
    <desc>Created with sketchtool.</desc>
    <g id="Page-1" stroke="none" stroke-width="1" fill="none" fill-rule="evenodd">
        <g id="autocrypo" transform="translate(-705.000000, -3892.000000)">
            <g id="Partner" transform="translate(192.000000, 3827.000000)">
                <g id="Group-16">
                    <g id="Group-12" transform="translate(0.000000, 65.000000)">
                        <g id="Group-18" transform="translate(513.000000, 0.000000)">
                            <path d="M39.684105,0.069797585 C39.3835569,-0.0767321182 39.1375556,0.0714558429 39.1375556,0.399489417 L39.1375556,40.7231974 L57.2362693,49.551612 C58.1380682,49.9916534 58.8760722,49.5466373 58.8760722,48.5629888 L58.8760722,9.74708953 C58.8760722,9.55367635 58.7640427,9.37684575 58.5866498,9.29031483 L39.684105,0.069797585" id="Fill-16" fill="#97A3D1"></path>
                            <path d="M19.4013568,31.107864 L38.8195463,0.323812554 C38.995703,0.0446222141 39.3857202,-0.0639183067 39.6864229,0.0827621472 L58.4435611,9.23242656 C58.6772005,9.34624335 58.7603341,9.63116222 58.6235809,9.84809251 L39.1397189,40.736162 L19.4013568,31.107864" id="Fill-17" fill="#929DC5"></path>
                            <path d="M2.61887188,0.935536588 C1.42035213,0.352623174 1.01432488,0.783928165 1.7167089,1.8938756 L20.1151654,30.9722813 L39.7906977,40.5405405 L20.2423954,9.64493114 C20.1592184,9.51354716 20.0399979,9.40733138 19.8981349,9.33826865 L2.61887188,0.935536588" id="Fill-19" fill="#97A3D1"></path>
                            <path d="M19.8953488,48.8456679 C19.8953488,49.8258622 19.151631,50.2691654 18.2426597,49.8308195 L1.10179273,41.5647394 C0.495760002,41.2725589 4.97379915e-14,40.4987687 4.97379915e-14,39.8453058 L4.97379915e-14,1.44527329 C4.97379915e-14,0.791810415 0.495760002,0.496174796 1.10179273,0.788505546 L19.6500388,9.7332857 C19.8003399,9.80569239 19.8953488,9.95396086 19.8953488,10.1160497 L19.8953488,48.8456679" id="Fill-20" fill="#929DC5"></path>
                        </g>
                    </g>
                </g>
            </g>
        </g>
    </g>
</svg>