<?xml version="1.0" encoding="UTF-8"?>
<svg width="139px" height="31px" viewBox="0 0 139 31" version="1.1" xmlns="http://www.w3.org/2000/svg" xmlns:xlink="http://www.w3.org/1999/xlink">
    <!-- Generator: sketchtool 52.5 (67469) - http://www.bohemiancoding.com/sketch -->
    <title>92B1B64A-ED9C-4A7B-BBD0-99A491F3232C</title>
    <desc>Created with sketchtool.</desc>
    <g id="Page-1" stroke="none" stroke-width="1" fill="none" fill-rule="evenodd">
        <g id="autocrypo" transform="translate(-818.000000, -3902.000000)" fill="#929DC5">
            <g id="Partner" transform="translate(192.000000, 3827.000000)">
                <g id="Group-16">
                    <g id="Group-12" transform="translate(0.000000, 65.000000)">
                        <g id="Group-15" transform="translate(626.000000, 10.000000)">
                            <path d="M66.6074872,24.1186422 C66.6074872,25.0461006 67.376702,25.8049784 68.3164655,25.8049784 C69.2564975,25.8049784 70.0254437,25.0461006 70.0254437,24.1186422 C70.0254437,20.7290058 70.0254437,17.3497068 70.0254437,13.9163348 C70.0254437,12.9886114 69.2564975,12.2297336 68.3164655,12.2297336 C67.376702,12.2297336 66.6074872,12.9886114 66.6074872,13.9163348 C66.6074872,17.4578529 66.6074872,20.4366404 66.6074872,24.1186422 Z M68.3164655,9.07785942 C71.2595715,9.07785942 73.6673965,11.4541568 73.6673965,14.3587264 C73.6673965,17.7412061 73.6673965,20.5832207 73.6673965,23.6423225 C73.6673965,26.5468921 71.2595715,28.9231895 68.3164655,28.9231895 C65.373628,28.9231895 62.9655345,26.5468921 62.9655345,23.6423225 L62.9655345,14.3587264 C62.9655345,11.4541568 65.373628,9.07785942 68.3164655,9.07785942 Z M54.3011248,28.9231895 L58.3338623,28.9231895 L58.3338623,18.3916728 L63.1301744,2.69565217 L59.0974369,2.69565217 L56.3138677,12.5586778 L53.5305671,2.69565217 L49.497561,2.69565217 L54.3011248,18.4152635 L54.3011248,28.9231895 Z M83.2132877,28.9231895 L86.7902439,28.9231895 L86.7902439,9.29918773 L83.2132877,9.29918773 L83.2132877,24.2570055 C80.6392113,27.2164434 79.9908578,25.0050157 79.9908578,23.8938681 L79.9908578,9.29918773 L76.413633,9.29918773 L76.413633,24.5904559 C76.413633,27.0870922 77.0458717,28.6780054 78.6538636,28.9306113 C79.7260373,29.0986617 81.2733301,28.9319366 83.2132877,26.591953 L83.2132877,28.9231895 Z" id="Fill-1"></path>
                            <path d="M118.273704,24.889741 L118.273704,13.1705849 C118.74278,12.6446624 119.372271,12.191711 120.127881,12.2400046 C121.85898,12.3509206 121.685842,14.4543453 121.685842,14.4543453 C121.685842,14.4543453 121.657078,22.2320014 121.657078,23.7264492 C121.657078,25.2211624 121.051097,25.7470849 120.041588,25.7746812 C119.178943,25.7982973 118.46399,25.0953868 118.273704,24.889741 Z M114.590244,28.9514442 L118.273704,28.9514442 L118.273704,26.8634098 C118.973999,27.6918306 120.126774,29.1974231 122.349352,28.9514442 C126.068767,28.5398873 125.390599,23.8095036 125.390599,23.8095036 C125.390599,23.8095036 125.390599,17.0560961 125.390599,13.7347177 C125.390599,10.4133393 124.16702,9.08473492 122.003077,9.08473492 C120.234363,9.08473492 118.754673,10.5828976 118.273704,11.1297827 L118.273704,2.69565217 L114.590244,2.69565217 L114.590244,28.9514442 Z" id="Fill-2"></path>
                            <path d="M107.693922,28.9235689 L111.2,28.9235689 L111.2,9.43478261 L107.693922,9.43478261 L107.693922,24.2895364 C105.171115,27.2285828 104.535346,25.0323926 104.535346,23.9289011 L104.535346,9.43478261 L101.029268,9.43478261 L101.029268,24.6206892 C101.029268,27.1001229 101.648979,28.6800743 103.225108,28.9309396 C104.275773,29.0978321 105.792406,28.9322558 107.693922,26.6083953 L107.693922,28.9235689" id="Fill-3"></path>
                            <polyline id="Fill-4" points="92.5069811 28.9782609 96.6686287 28.9782609 96.6686287 6.44674366 101.029268 6.44674366 101.029268 2.69565217 88.1463415 2.69565217 88.1463415 6.44674366 92.5069811 6.44674366 92.5069811 28.9782609"></polyline>
                            <path d="M135.308049,17.1806871 L135.308049,14.36397 C135.308049,13.4188535 134.528547,12.6457483 133.57561,12.6457483 C132.622673,12.6457483 131.84317,13.4188535 131.84317,14.36397 L131.84317,17.1806871 L135.308049,17.1806871 Z M133.57561,9.43478261 C136.55912,9.43478261 139,11.8556309 139,14.8146555 L139,20.2226119 L131.84317,20.2226119 L131.84317,24.7575508 C131.84317,25.7023972 132.622673,26.4755025 133.57561,26.4755025 C134.528547,26.4755025 135.308049,25.7023972 135.308049,24.7575508 L135.308049,22.5324766 L139,22.5324766 L139,24.272301 C139,27.2313256 136.55912,29.6521739 133.57561,29.6521739 C130.5921,29.6521739 128.15122,27.2313256 128.15122,24.272301 L128.15122,14.8146555 C128.15122,11.8556309 130.5921,9.43478261 133.57561,9.43478261 Z" id="Fill-5"></path>
                            <path d="M18.5417167,22.3584509 L18.5417167,9.05299982 L30.1742107,15.499884 L18.5417167,22.3584509 Z M46.0957277,13.8679216 C46.0257847,8.81907115 45.5513652,3.74463884 43.4259661,1.87004474 C42.605356,1.14636914 41.8256815,0.692489509 38.7075257,0.410298221 C34.805629,0.0574272458 29.5214095,0.00784597273 25.5265266,0.00178017869 C23.8779868,-0.000593392896 22.2289048,-0.000593392896 20.5803649,0.00178017869 C16.5857531,0.00810970291 11.3012625,0.0574272458 7.39936584,0.410298221 C4.28148117,0.692489509 3.50153559,1.14636914 2.68119657,1.87004474 C0.518928236,3.77707765 0.0653832356,8.99497918 0.00763961027,14.1290145 C-0.00293316619,15.0858276 -0.00266206936,16.0444868 0.00926619126,17.0012999 C0.0732450437,22.0931384 0.537362821,27.2390416 2.68119657,29.1299869 C3.50153559,29.8536625 4.28148117,30.3075422 7.39936584,30.5894697 C11.3012625,30.9423407 16.5857531,30.991922 20.5803649,30.9979878 C22.2289048,31.0006251 23.8779868,31.0006251 25.5265266,30.9982515 C29.5214095,30.991922 34.805629,30.9423407 38.7075257,30.5894697 C41.8256815,30.3075422 42.605356,29.8536625 43.4259661,29.1299869 C45.5513652,27.2553928 46.0257847,22.1809605 46.0957277,17.1318463 C46.1111802,16.0450142 46.1111802,14.9550174 46.0957277,13.8679216 Z" id="Fill-7"></path>
                        </g>
                    </g>
                </g>
            </g>
        </g>
    </g>
</svg>